<svg viewBox="0 0 64 64" xml:space="preserve" xmlns="http://www.w3.org/2000/svg" enable-background="new 0 0 64 64"><g id="yt"><path d="M50 53H14C6.8 53 1 47.2 1 40V24c0-7.2 5.8-13 13-13h36c7.2 0 13 5.8 13 13v16c0 7.2-5.8 13-13 13zM14 13C7.9 13 3 17.9 3 24v16c0 6.1 4.9 11 11 11h36c6.1 0 11-4.9 11-11V24c0-6.1-4.9-11-11-11H14z" fill="#1336a7" class="fill-231f20"></path><path d="M24 43c-.2 0-.4-.1-.5-.1-.3-.2-.5-.6-.5-.9V22c0-.3.2-.7.5-.9.3-.2.7-.2 1 0l20 10c.3.2.6.5.6.9s-.2.7-.6.9l-20 10c-.2.1-.3.1-.5.1zm1-19.4v16.8L41.8 32 25 23.6z" fill="#1336a7" class="fill-231f20"></path></g></svg>